<?xml version="1.0" encoding="utf-8" standalone="no"?>
<!DOCTYPE svg PUBLIC "-//W3C//DTD SVG 1.1//EN"
  "http://www.w3.org/Graphics/SVG/1.1/DTD/svg11.dtd">
<!-- Created with matplotlib (https://matplotlib.org/) -->
<svg height="248.518125pt" version="1.1" viewBox="0 0 372.103125 248.518125" width="372.103125pt" xmlns="http://www.w3.org/2000/svg" xmlns:xlink="http://www.w3.org/1999/xlink">
 <metadata>
  <rdf:RDF xmlns:cc="http://creativecommons.org/ns#" xmlns:dc="http://purl.org/dc/elements/1.1/" xmlns:rdf="http://www.w3.org/1999/02/22-rdf-syntax-ns#">
   <cc:Work>
    <dc:type rdf:resource="http://purl.org/dc/dcmitype/StillImage"/>
    <dc:date>2020-08-14T21:28:14.013484</dc:date>
    <dc:format>image/svg+xml</dc:format>
    <dc:creator>
     <cc:Agent>
      <dc:title>Matplotlib v3.3.0, https://matplotlib.org/</dc:title>
     </cc:Agent>
    </dc:creator>
   </cc:Work>
  </rdf:RDF>
 </metadata>
 <defs>
  <style type="text/css">*{stroke-linecap:butt;stroke-linejoin:round;}</style>
 </defs>
 <g id="figure_1">
  <g id="patch_1">
   <path d="M 0 248.518125 
L 372.103125 248.518125 
L 372.103125 0 
L 0 0 
z
" style="fill:none;"/>
  </g>
  <g id="axes_1">
   <g id="patch_2">
    <path d="M 30.103125 224.64 
L 364.903125 224.64 
L 364.903125 7.2 
L 30.103125 7.2 
z
" style="fill:#ffffff;"/>
   </g>
   <g id="PathCollection_1">
    <defs>
     <path d="M 0 3 
C 0.795609 3 1.55874 2.683901 2.12132 2.12132 
C 2.683901 1.55874 3 0.795609 3 0 
C 3 -0.795609 2.683901 -1.55874 2.12132 -2.12132 
C 1.55874 -2.683901 0.795609 -3 0 -3 
C -0.795609 -3 -1.55874 -2.683901 -2.12132 -2.12132 
C -2.683901 -1.55874 -3 -0.795609 -3 0 
C -3 0.795609 -2.683901 1.55874 -2.12132 2.12132 
C -1.55874 2.683901 -0.795609 3 0 3 
z
" id="m782ecbbedd" style="stroke:#1f77b4;"/>
    </defs>
    <g clip-path="url(#p49a3b6b04f)">
     <use style="fill:#1f77b4;stroke:#1f77b4;" x="251.489562" xlink:href="#m782ecbbedd" y="30.854448"/>
     <use style="fill:#1f77b4;stroke:#1f77b4;" x="178.442223" xlink:href="#m782ecbbedd" y="98.311347"/>
     <use style="fill:#1f77b4;stroke:#1f77b4;" x="322.085275" xlink:href="#m782ecbbedd" y="196.47466"/>
     <use style="fill:#1f77b4;stroke:#1f77b4;" x="135.632686" xlink:href="#m782ecbbedd" y="96.864948"/>
     <use style="fill:#1f77b4;stroke:#1f77b4;" x="68.792078" xlink:href="#m782ecbbedd" y="49.860684"/>
     <use style="fill:#1f77b4;stroke:#1f77b4;" x="176.505738" xlink:href="#m782ecbbedd" y="31.365871"/>
     <use style="fill:#1f77b4;stroke:#1f77b4;" x="171.987528" xlink:href="#m782ecbbedd" y="186.279031"/>
     <use style="fill:#1f77b4;stroke:#1f77b4;" x="101.820478" xlink:href="#m782ecbbedd" y="50.627487"/>
     <use style="fill:#1f77b4;stroke:#1f77b4;" x="169.239302" xlink:href="#m782ecbbedd" y="91.726065"/>
     <use style="fill:#1f77b4;stroke:#1f77b4;" x="145.279113" xlink:href="#m782ecbbedd" y="79.383695"/>
     <use style="fill:#1f77b4;stroke:#1f77b4;" x="180.925293" xlink:href="#m782ecbbedd" y="102.713716"/>
     <use style="fill:#1f77b4;stroke:#1f77b4;" x="163.722067" xlink:href="#m782ecbbedd" y="112.23466"/>
     <use style="fill:#1f77b4;stroke:#1f77b4;" x="180.634538" xlink:href="#m782ecbbedd" y="39.604146"/>
     <use style="fill:#1f77b4;stroke:#1f77b4;" x="220.078027" xlink:href="#m782ecbbedd" y="28.290844"/>
     <use style="fill:#1f77b4;stroke:#1f77b4;" x="179.735159" xlink:href="#m782ecbbedd" y="159.17633"/>
     <use style="fill:#1f77b4;stroke:#1f77b4;" x="127.667473" xlink:href="#m782ecbbedd" y="115.163983"/>
     <use style="fill:#1f77b4;stroke:#1f77b4;" x="72.609831" xlink:href="#m782ecbbedd" y="64.456832"/>
     <use style="fill:#1f77b4;stroke:#1f77b4;" x="81.349316" xlink:href="#m782ecbbedd" y="97.724485"/>
     <use style="fill:#1f77b4;stroke:#1f77b4;" x="57.888803" xlink:href="#m782ecbbedd" y="21.824319"/>
     <use style="fill:#1f77b4;stroke:#1f77b4;" x="171.961002" xlink:href="#m782ecbbedd" y="207.631413"/>
     <use style="fill:#1f77b4;stroke:#1f77b4;" x="244.3119" xlink:href="#m782ecbbedd" y="56.25938"/>
     <use style="fill:#1f77b4;stroke:#1f77b4;" x="77.569264" xlink:href="#m782ecbbedd" y="43.185633"/>
     <use style="fill:#1f77b4;stroke:#1f77b4;" x="200.067516" xlink:href="#m782ecbbedd" y="28.526835"/>
     <use style="fill:#1f77b4;stroke:#1f77b4;" x="45.321307" xlink:href="#m782ecbbedd" y="176.130861"/>
     <use style="fill:#1f77b4;stroke:#1f77b4;" x="224.970686" xlink:href="#m782ecbbedd" y="61.6346"/>
     <use style="fill:#1f77b4;stroke:#1f77b4;" x="210.781494" xlink:href="#m782ecbbedd" y="172.372301"/>
     <use style="fill:#1f77b4;stroke:#1f77b4;" x="147.466369" xlink:href="#m782ecbbedd" y="65.199037"/>
     <use style="fill:#1f77b4;stroke:#1f77b4;" x="298.4773" xlink:href="#m782ecbbedd" y="37.627795"/>
     <use style="fill:#1f77b4;stroke:#1f77b4;" x="231.300706" xlink:href="#m782ecbbedd" y="210.030076"/>
     <use style="fill:#1f77b4;stroke:#1f77b4;" x="64.646839" xlink:href="#m782ecbbedd" y="166.390167"/>
     <use style="fill:#1f77b4;stroke:#1f77b4;" x="78.244677" xlink:href="#m782ecbbedd" y="63.503828"/>
     <use style="fill:#1f77b4;stroke:#1f77b4;" x="179.391532" xlink:href="#m782ecbbedd" y="59.625737"/>
     <use style="fill:#1f77b4;stroke:#1f77b4;" x="253.400301" xlink:href="#m782ecbbedd" y="155.654836"/>
     <use style="fill:#1f77b4;stroke:#1f77b4;" x="150.35078" xlink:href="#m782ecbbedd" y="91.810809"/>
     <use style="fill:#1f77b4;stroke:#1f77b4;" x="278.356467" xlink:href="#m782ecbbedd" y="104.231639"/>
     <use style="fill:#1f77b4;stroke:#1f77b4;" x="286.708558" xlink:href="#m782ecbbedd" y="97.272751"/>
     <use style="fill:#1f77b4;stroke:#1f77b4;" x="195.644486" xlink:href="#m782ecbbedd" y="150.814493"/>
     <use style="fill:#1f77b4;stroke:#1f77b4;" x="98.516845" xlink:href="#m782ecbbedd" y="82.9883"/>
     <use style="fill:#1f77b4;stroke:#1f77b4;" x="72.86394" xlink:href="#m782ecbbedd" y="87.115083"/>
     <use style="fill:#1f77b4;stroke:#1f77b4;" x="349.684943" xlink:href="#m782ecbbedd" y="147.317133"/>
     <use style="fill:#1f77b4;stroke:#1f77b4;" x="103.375837" xlink:href="#m782ecbbedd" y="138.157764"/>
     <use style="fill:#1f77b4;stroke:#1f77b4;" x="86.646276" xlink:href="#m782ecbbedd" y="25.299266"/>
     <use style="fill:#1f77b4;stroke:#1f77b4;" x="247.77539" xlink:href="#m782ecbbedd" y="119.034713"/>
     <use style="fill:#1f77b4;stroke:#1f77b4;" x="289.268688" xlink:href="#m782ecbbedd" y="82.658974"/>
     <use style="fill:#1f77b4;stroke:#1f77b4;" x="280.534495" xlink:href="#m782ecbbedd" y="17.083636"/>
     <use style="fill:#1f77b4;stroke:#1f77b4;" x="232.154637" xlink:href="#m782ecbbedd" y="181.269703"/>
     <use style="fill:#1f77b4;stroke:#1f77b4;" x="115.16366" xlink:href="#m782ecbbedd" y="57.584824"/>
     <use style="fill:#1f77b4;stroke:#1f77b4;" x="299.422083" xlink:href="#m782ecbbedd" y="50.478113"/>
     <use style="fill:#1f77b4;stroke:#1f77b4;" x="305.451084" xlink:href="#m782ecbbedd" y="18.844633"/>
     <use style="fill:#1f77b4;stroke:#1f77b4;" x="231.334454" xlink:href="#m782ecbbedd" y="65.362283"/>
     <use style="fill:#1f77b4;stroke:#1f77b4;" x="348.439515" xlink:href="#m782ecbbedd" y="122.496489"/>
     <use style="fill:#1f77b4;stroke:#1f77b4;" x="165.284256" xlink:href="#m782ecbbedd" y="136.254549"/>
     <use style="fill:#1f77b4;stroke:#1f77b4;" x="166.358188" xlink:href="#m782ecbbedd" y="186.251768"/>
     <use style="fill:#1f77b4;stroke:#1f77b4;" x="240.627892" xlink:href="#m782ecbbedd" y="68.120747"/>
     <use style="fill:#1f77b4;stroke:#1f77b4;" x="58.728884" xlink:href="#m782ecbbedd" y="153.368062"/>
     <use style="fill:#1f77b4;stroke:#1f77b4;" x="154.106775" xlink:href="#m782ecbbedd" y="88.608742"/>
     <use style="fill:#1f77b4;stroke:#1f77b4;" x="182.000834" xlink:href="#m782ecbbedd" y="207.366602"/>
     <use style="fill:#1f77b4;stroke:#1f77b4;" x="173.953269" xlink:href="#m782ecbbedd" y="124.805606"/>
     <use style="fill:#1f77b4;stroke:#1f77b4;" x="224.641544" xlink:href="#m782ecbbedd" y="210.872134"/>
     <use style="fill:#1f77b4;stroke:#1f77b4;" x="254.583518" xlink:href="#m782ecbbedd" y="204.762186"/>
     <use style="fill:#1f77b4;stroke:#1f77b4;" x="116.467079" xlink:href="#m782ecbbedd" y="87.145367"/>
     <use style="fill:#1f77b4;stroke:#1f77b4;" x="320.914639" xlink:href="#m782ecbbedd" y="177.246103"/>
     <use style="fill:#1f77b4;stroke:#1f77b4;" x="321.839792" xlink:href="#m782ecbbedd" y="113.630648"/>
     <use style="fill:#1f77b4;stroke:#1f77b4;" x="277.782794" xlink:href="#m782ecbbedd" y="68.628396"/>
     <use style="fill:#1f77b4;stroke:#1f77b4;" x="131.628189" xlink:href="#m782ecbbedd" y="161.300518"/>
     <use style="fill:#1f77b4;stroke:#1f77b4;" x="87.913041" xlink:href="#m782ecbbedd" y="169.851754"/>
     <use style="fill:#1f77b4;stroke:#1f77b4;" x="152.683517" xlink:href="#m782ecbbedd" y="76.188735"/>
     <use style="fill:#1f77b4;stroke:#1f77b4;" x="345.92488" xlink:href="#m782ecbbedd" y="186.388198"/>
     <use style="fill:#1f77b4;stroke:#1f77b4;" x="164.772712" xlink:href="#m782ecbbedd" y="80.737155"/>
     <use style="fill:#1f77b4;stroke:#1f77b4;" x="132.538657" xlink:href="#m782ecbbedd" y="196.581707"/>
     <use style="fill:#1f77b4;stroke:#1f77b4;" x="177.929625" xlink:href="#m782ecbbedd" y="188.22106"/>
     <use style="fill:#1f77b4;stroke:#1f77b4;" x="221.128826" xlink:href="#m782ecbbedd" y="99.298736"/>
     <use style="fill:#1f77b4;stroke:#1f77b4;" x="129.908578" xlink:href="#m782ecbbedd" y="194.396689"/>
     <use style="fill:#1f77b4;stroke:#1f77b4;" x="181.831013" xlink:href="#m782ecbbedd" y="57.069835"/>
     <use style="fill:#1f77b4;stroke:#1f77b4;" x="233.462213" xlink:href="#m782ecbbedd" y="42.57384"/>
     <use style="fill:#1f77b4;stroke:#1f77b4;" x="126.656013" xlink:href="#m782ecbbedd" y="56.508046"/>
     <use style="fill:#1f77b4;stroke:#1f77b4;" x="290.130815" xlink:href="#m782ecbbedd" y="165.474542"/>
     <use style="fill:#1f77b4;stroke:#1f77b4;" x="229.309521" xlink:href="#m782ecbbedd" y="152.72828"/>
     <use style="fill:#1f77b4;stroke:#1f77b4;" x="187.010865" xlink:href="#m782ecbbedd" y="42.766717"/>
     <use style="fill:#1f77b4;stroke:#1f77b4;" x="226.913457" xlink:href="#m782ecbbedd" y="80.176271"/>
     <use style="fill:#1f77b4;stroke:#1f77b4;" x="227.713032" xlink:href="#m782ecbbedd" y="214.756364"/>
     <use style="fill:#1f77b4;stroke:#1f77b4;" x="216.318037" xlink:href="#m782ecbbedd" y="22.38269"/>
     <use style="fill:#1f77b4;stroke:#1f77b4;" x="293.05598" xlink:href="#m782ecbbedd" y="113.893446"/>
     <use style="fill:#1f77b4;stroke:#1f77b4;" x="50.457965" xlink:href="#m782ecbbedd" y="214.467582"/>
     <use style="fill:#1f77b4;stroke:#1f77b4;" x="324.113302" xlink:href="#m782ecbbedd" y="182.038979"/>
     <use style="fill:#1f77b4;stroke:#1f77b4;" x="157.814194" xlink:href="#m782ecbbedd" y="207.135626"/>
     <use style="fill:#1f77b4;stroke:#1f77b4;" x="186.868236" xlink:href="#m782ecbbedd" y="137.559646"/>
     <use style="fill:#1f77b4;stroke:#1f77b4;" x="95.558317" xlink:href="#m782ecbbedd" y="103.949154"/>
     <use style="fill:#1f77b4;stroke:#1f77b4;" x="138.787241" xlink:href="#m782ecbbedd" y="170.967561"/>
     <use style="fill:#1f77b4;stroke:#1f77b4;" x="99.63015" xlink:href="#m782ecbbedd" y="136.375724"/>
     <use style="fill:#1f77b4;stroke:#1f77b4;" x="175.272626" xlink:href="#m782ecbbedd" y="120.841665"/>
     <use style="fill:#1f77b4;stroke:#1f77b4;" x="185.177491" xlink:href="#m782ecbbedd" y="34.645061"/>
     <use style="fill:#1f77b4;stroke:#1f77b4;" x="283.495981" xlink:href="#m782ecbbedd" y="190.284145"/>
     <use style="fill:#1f77b4;stroke:#1f77b4;" x="283.464504" xlink:href="#m782ecbbedd" y="132.969721"/>
     <use style="fill:#1f77b4;stroke:#1f77b4;" x="315.112083" xlink:href="#m782ecbbedd" y="47.703715"/>
     <use style="fill:#1f77b4;stroke:#1f77b4;" x="302.550964" xlink:href="#m782ecbbedd" y="190.647589"/>
     <use style="fill:#1f77b4;stroke:#1f77b4;" x="191.219478" xlink:href="#m782ecbbedd" y="184.077313"/>
     <use style="fill:#1f77b4;stroke:#1f77b4;" x="156.806228" xlink:href="#m782ecbbedd" y="29.041832"/>
     <use style="fill:#1f77b4;stroke:#1f77b4;" x="111.950363" xlink:href="#m782ecbbedd" y="33.499895"/>
     <use style="fill:#1f77b4;stroke:#1f77b4;" x="198.182602" xlink:href="#m782ecbbedd" y="117.389127"/>
    </g>
   </g>
   <g id="matplotlib.axis_1">
    <g id="xtick_1">
     <g id="line2d_1">
      <defs>
       <path d="M 0 0 
L 0 3.5 
" id="m58c734f9bd" style="stroke:#000000;stroke-width:0.8;"/>
      </defs>
      <g>
       <use style="stroke:#000000;stroke-width:0.8;" x="45.151366" xlink:href="#m58c734f9bd" y="224.64"/>
      </g>
     </g>
     <g id="text_1">
      <!-- 0.0 -->
      <g transform="translate(37.199804 239.238437)scale(0.1 -0.1)">
       <defs>
        <path d="M 31.78125 66.40625 
Q 24.171875 66.40625 20.328125 58.90625 
Q 16.5 51.421875 16.5 36.375 
Q 16.5 21.390625 20.328125 13.890625 
Q 24.171875 6.390625 31.78125 6.390625 
Q 39.453125 6.390625 43.28125 13.890625 
Q 47.125 21.390625 47.125 36.375 
Q 47.125 51.421875 43.28125 58.90625 
Q 39.453125 66.40625 31.78125 66.40625 
z
M 31.78125 74.21875 
Q 44.046875 74.21875 50.515625 64.515625 
Q 56.984375 54.828125 56.984375 36.375 
Q 56.984375 17.96875 50.515625 8.265625 
Q 44.046875 -1.421875 31.78125 -1.421875 
Q 19.53125 -1.421875 13.0625 8.265625 
Q 6.59375 17.96875 6.59375 36.375 
Q 6.59375 54.828125 13.0625 64.515625 
Q 19.53125 74.21875 31.78125 74.21875 
z
" id="DejaVuSans-48"/>
        <path d="M 10.6875 12.40625 
L 21 12.40625 
L 21 0 
L 10.6875 0 
z
" id="DejaVuSans-46"/>
       </defs>
       <use xlink:href="#DejaVuSans-48"/>
       <use x="63.623047" xlink:href="#DejaVuSans-46"/>
       <use x="95.410156" xlink:href="#DejaVuSans-48"/>
      </g>
     </g>
    </g>
    <g id="xtick_2">
     <g id="line2d_2">
      <g>
       <use style="stroke:#000000;stroke-width:0.8;" x="107.183365" xlink:href="#m58c734f9bd" y="224.64"/>
      </g>
     </g>
     <g id="text_2">
      <!-- 0.2 -->
      <g transform="translate(99.231803 239.238437)scale(0.1 -0.1)">
       <defs>
        <path d="M 19.1875 8.296875 
L 53.609375 8.296875 
L 53.609375 0 
L 7.328125 0 
L 7.328125 8.296875 
Q 12.9375 14.109375 22.625 23.890625 
Q 32.328125 33.6875 34.8125 36.53125 
Q 39.546875 41.84375 41.421875 45.53125 
Q 43.3125 49.21875 43.3125 52.78125 
Q 43.3125 58.59375 39.234375 62.25 
Q 35.15625 65.921875 28.609375 65.921875 
Q 23.96875 65.921875 18.8125 64.3125 
Q 13.671875 62.703125 7.8125 59.421875 
L 7.8125 69.390625 
Q 13.765625 71.78125 18.9375 73 
Q 24.125 74.21875 28.421875 74.21875 
Q 39.75 74.21875 46.484375 68.546875 
Q 53.21875 62.890625 53.21875 53.421875 
Q 53.21875 48.921875 51.53125 44.890625 
Q 49.859375 40.875 45.40625 35.40625 
Q 44.1875 33.984375 37.640625 27.21875 
Q 31.109375 20.453125 19.1875 8.296875 
z
" id="DejaVuSans-50"/>
       </defs>
       <use xlink:href="#DejaVuSans-48"/>
       <use x="63.623047" xlink:href="#DejaVuSans-46"/>
       <use x="95.410156" xlink:href="#DejaVuSans-50"/>
      </g>
     </g>
    </g>
    <g id="xtick_3">
     <g id="line2d_3">
      <g>
       <use style="stroke:#000000;stroke-width:0.8;" x="169.215365" xlink:href="#m58c734f9bd" y="224.64"/>
      </g>
     </g>
     <g id="text_3">
      <!-- 0.4 -->
      <g transform="translate(161.263802 239.238437)scale(0.1 -0.1)">
       <defs>
        <path d="M 37.796875 64.3125 
L 12.890625 25.390625 
L 37.796875 25.390625 
z
M 35.203125 72.90625 
L 47.609375 72.90625 
L 47.609375 25.390625 
L 58.015625 25.390625 
L 58.015625 17.1875 
L 47.609375 17.1875 
L 47.609375 0 
L 37.796875 0 
L 37.796875 17.1875 
L 4.890625 17.1875 
L 4.890625 26.703125 
z
" id="DejaVuSans-52"/>
       </defs>
       <use xlink:href="#DejaVuSans-48"/>
       <use x="63.623047" xlink:href="#DejaVuSans-46"/>
       <use x="95.410156" xlink:href="#DejaVuSans-52"/>
      </g>
     </g>
    </g>
    <g id="xtick_4">
     <g id="line2d_4">
      <g>
       <use style="stroke:#000000;stroke-width:0.8;" x="231.247364" xlink:href="#m58c734f9bd" y="224.64"/>
      </g>
     </g>
     <g id="text_4">
      <!-- 0.6 -->
      <g transform="translate(223.295801 239.238437)scale(0.1 -0.1)">
       <defs>
        <path d="M 33.015625 40.375 
Q 26.375 40.375 22.484375 35.828125 
Q 18.609375 31.296875 18.609375 23.390625 
Q 18.609375 15.53125 22.484375 10.953125 
Q 26.375 6.390625 33.015625 6.390625 
Q 39.65625 6.390625 43.53125 10.953125 
Q 47.40625 15.53125 47.40625 23.390625 
Q 47.40625 31.296875 43.53125 35.828125 
Q 39.65625 40.375 33.015625 40.375 
z
M 52.59375 71.296875 
L 52.59375 62.3125 
Q 48.875 64.0625 45.09375 64.984375 
Q 41.3125 65.921875 37.59375 65.921875 
Q 27.828125 65.921875 22.671875 59.328125 
Q 17.53125 52.734375 16.796875 39.40625 
Q 19.671875 43.65625 24.015625 45.921875 
Q 28.375 48.1875 33.59375 48.1875 
Q 44.578125 48.1875 50.953125 41.515625 
Q 57.328125 34.859375 57.328125 23.390625 
Q 57.328125 12.15625 50.6875 5.359375 
Q 44.046875 -1.421875 33.015625 -1.421875 
Q 20.359375 -1.421875 13.671875 8.265625 
Q 6.984375 17.96875 6.984375 36.375 
Q 6.984375 53.65625 15.1875 63.9375 
Q 23.390625 74.21875 37.203125 74.21875 
Q 40.921875 74.21875 44.703125 73.484375 
Q 48.484375 72.75 52.59375 71.296875 
z
" id="DejaVuSans-54"/>
       </defs>
       <use xlink:href="#DejaVuSans-48"/>
       <use x="63.623047" xlink:href="#DejaVuSans-46"/>
       <use x="95.410156" xlink:href="#DejaVuSans-54"/>
      </g>
     </g>
    </g>
    <g id="xtick_5">
     <g id="line2d_5">
      <g>
       <use style="stroke:#000000;stroke-width:0.8;" x="293.279363" xlink:href="#m58c734f9bd" y="224.64"/>
      </g>
     </g>
     <g id="text_5">
      <!-- 0.8 -->
      <g transform="translate(285.3278 239.238437)scale(0.1 -0.1)">
       <defs>
        <path d="M 31.78125 34.625 
Q 24.75 34.625 20.71875 30.859375 
Q 16.703125 27.09375 16.703125 20.515625 
Q 16.703125 13.921875 20.71875 10.15625 
Q 24.75 6.390625 31.78125 6.390625 
Q 38.8125 6.390625 42.859375 10.171875 
Q 46.921875 13.96875 46.921875 20.515625 
Q 46.921875 27.09375 42.890625 30.859375 
Q 38.875 34.625 31.78125 34.625 
z
M 21.921875 38.8125 
Q 15.578125 40.375 12.03125 44.71875 
Q 8.5 49.078125 8.5 55.328125 
Q 8.5 64.0625 14.71875 69.140625 
Q 20.953125 74.21875 31.78125 74.21875 
Q 42.671875 74.21875 48.875 69.140625 
Q 55.078125 64.0625 55.078125 55.328125 
Q 55.078125 49.078125 51.53125 44.71875 
Q 48 40.375 41.703125 38.8125 
Q 48.828125 37.15625 52.796875 32.3125 
Q 56.78125 27.484375 56.78125 20.515625 
Q 56.78125 9.90625 50.3125 4.234375 
Q 43.84375 -1.421875 31.78125 -1.421875 
Q 19.734375 -1.421875 13.25 4.234375 
Q 6.78125 9.90625 6.78125 20.515625 
Q 6.78125 27.484375 10.78125 32.3125 
Q 14.796875 37.15625 21.921875 38.8125 
z
M 18.3125 54.390625 
Q 18.3125 48.734375 21.84375 45.5625 
Q 25.390625 42.390625 31.78125 42.390625 
Q 38.140625 42.390625 41.71875 45.5625 
Q 45.3125 48.734375 45.3125 54.390625 
Q 45.3125 60.0625 41.71875 63.234375 
Q 38.140625 66.40625 31.78125 66.40625 
Q 25.390625 66.40625 21.84375 63.234375 
Q 18.3125 60.0625 18.3125 54.390625 
z
" id="DejaVuSans-56"/>
       </defs>
       <use xlink:href="#DejaVuSans-48"/>
       <use x="63.623047" xlink:href="#DejaVuSans-46"/>
       <use x="95.410156" xlink:href="#DejaVuSans-56"/>
      </g>
     </g>
    </g>
    <g id="xtick_6">
     <g id="line2d_6">
      <g>
       <use style="stroke:#000000;stroke-width:0.8;" x="355.311362" xlink:href="#m58c734f9bd" y="224.64"/>
      </g>
     </g>
     <g id="text_6">
      <!-- 1.0 -->
      <g transform="translate(347.3598 239.238437)scale(0.1 -0.1)">
       <defs>
        <path d="M 12.40625 8.296875 
L 28.515625 8.296875 
L 28.515625 63.921875 
L 10.984375 60.40625 
L 10.984375 69.390625 
L 28.421875 72.90625 
L 38.28125 72.90625 
L 38.28125 8.296875 
L 54.390625 8.296875 
L 54.390625 0 
L 12.40625 0 
z
" id="DejaVuSans-49"/>
       </defs>
       <use xlink:href="#DejaVuSans-49"/>
       <use x="63.623047" xlink:href="#DejaVuSans-46"/>
       <use x="95.410156" xlink:href="#DejaVuSans-48"/>
      </g>
     </g>
    </g>
   </g>
   <g id="matplotlib.axis_2">
    <g id="ytick_1">
     <g id="line2d_7">
      <defs>
       <path d="M 0 0 
L -3.5 0 
" id="m34406a5e13" style="stroke:#000000;stroke-width:0.8;"/>
      </defs>
      <g>
       <use style="stroke:#000000;stroke-width:0.8;" x="30.103125" xlink:href="#m34406a5e13" y="217.683005"/>
      </g>
     </g>
     <g id="text_7">
      <!-- 0.0 -->
      <g transform="translate(7.2 221.482224)scale(0.1 -0.1)">
       <use xlink:href="#DejaVuSans-48"/>
       <use x="63.623047" xlink:href="#DejaVuSans-46"/>
       <use x="95.410156" xlink:href="#DejaVuSans-48"/>
      </g>
     </g>
    </g>
    <g id="ytick_2">
     <g id="line2d_8">
      <g>
       <use style="stroke:#000000;stroke-width:0.8;" x="30.103125" xlink:href="#m34406a5e13" y="176.678565"/>
      </g>
     </g>
     <g id="text_8">
      <!-- 0.2 -->
      <g transform="translate(7.2 180.477784)scale(0.1 -0.1)">
       <use xlink:href="#DejaVuSans-48"/>
       <use x="63.623047" xlink:href="#DejaVuSans-46"/>
       <use x="95.410156" xlink:href="#DejaVuSans-50"/>
      </g>
     </g>
    </g>
    <g id="ytick_3">
     <g id="line2d_9">
      <g>
       <use style="stroke:#000000;stroke-width:0.8;" x="30.103125" xlink:href="#m34406a5e13" y="135.674126"/>
      </g>
     </g>
     <g id="text_9">
      <!-- 0.4 -->
      <g transform="translate(7.2 139.473345)scale(0.1 -0.1)">
       <use xlink:href="#DejaVuSans-48"/>
       <use x="63.623047" xlink:href="#DejaVuSans-46"/>
       <use x="95.410156" xlink:href="#DejaVuSans-52"/>
      </g>
     </g>
    </g>
    <g id="ytick_4">
     <g id="line2d_10">
      <g>
       <use style="stroke:#000000;stroke-width:0.8;" x="30.103125" xlink:href="#m34406a5e13" y="94.669686"/>
      </g>
     </g>
     <g id="text_10">
      <!-- 0.6 -->
      <g transform="translate(7.2 98.468905)scale(0.1 -0.1)">
       <use xlink:href="#DejaVuSans-48"/>
       <use x="63.623047" xlink:href="#DejaVuSans-46"/>
       <use x="95.410156" xlink:href="#DejaVuSans-54"/>
      </g>
     </g>
    </g>
    <g id="ytick_5">
     <g id="line2d_11">
      <g>
       <use style="stroke:#000000;stroke-width:0.8;" x="30.103125" xlink:href="#m34406a5e13" y="53.665247"/>
      </g>
     </g>
     <g id="text_11">
      <!-- 0.8 -->
      <g transform="translate(7.2 57.464466)scale(0.1 -0.1)">
       <use xlink:href="#DejaVuSans-48"/>
       <use x="63.623047" xlink:href="#DejaVuSans-46"/>
       <use x="95.410156" xlink:href="#DejaVuSans-56"/>
      </g>
     </g>
    </g>
    <g id="ytick_6">
     <g id="line2d_12">
      <g>
       <use style="stroke:#000000;stroke-width:0.8;" x="30.103125" xlink:href="#m34406a5e13" y="12.660807"/>
      </g>
     </g>
     <g id="text_12">
      <!-- 1.0 -->
      <g transform="translate(7.2 16.460026)scale(0.1 -0.1)">
       <use xlink:href="#DejaVuSans-49"/>
       <use x="63.623047" xlink:href="#DejaVuSans-46"/>
       <use x="95.410156" xlink:href="#DejaVuSans-48"/>
      </g>
     </g>
    </g>
   </g>
   <g id="patch_3">
    <path d="M 30.103125 224.64 
L 30.103125 7.2 
" style="fill:none;stroke:#000000;stroke-linecap:square;stroke-linejoin:miter;stroke-width:0.8;"/>
   </g>
   <g id="patch_4">
    <path d="M 364.903125 224.64 
L 364.903125 7.2 
" style="fill:none;stroke:#000000;stroke-linecap:square;stroke-linejoin:miter;stroke-width:0.8;"/>
   </g>
   <g id="patch_5">
    <path d="M 30.103125 224.64 
L 364.903125 224.64 
" style="fill:none;stroke:#000000;stroke-linecap:square;stroke-linejoin:miter;stroke-width:0.8;"/>
   </g>
   <g id="patch_6">
    <path d="M 30.103125 7.2 
L 364.903125 7.2 
" style="fill:none;stroke:#000000;stroke-linecap:square;stroke-linejoin:miter;stroke-width:0.8;"/>
   </g>
  </g>
 </g>
 <defs>
  <clipPath id="p49a3b6b04f">
   <rect height="217.44" width="334.8" x="30.103125" y="7.2"/>
  </clipPath>
 </defs>
</svg>
